<svg width="23" height="15" viewBox="0 0 23 15" fill="none" xmlns="http://www.w3.org/2000/svg">
<path fill-rule="evenodd" clip-rule="evenodd" d="M20.4724 10.5147C20.4724 10.5147 22.332 12.6098 22.792 13.5792C22.8009 13.5932 22.8079 13.6087 22.8127 13.6252C23.0001 13.9833 23.0461 14.264 22.9541 14.4713C22.7989 14.8137 22.2733 14.9856 22.0951 15H18.8084C18.5795 15 18.1034 14.9318 17.5238 14.4753C17.0811 14.1224 16.6406 13.5412 16.214 12.9732C15.5769 12.1296 15.026 11.3976 14.4683 11.3976C14.3978 11.3974 14.3279 11.4107 14.2613 11.4369C13.8392 11.5891 13.3033 12.2752 13.3033 14.1027C13.3033 14.6747 12.9077 15 12.6306 15H11.1252C10.6123 15 7.94201 14.7953 5.57416 11.9473C2.67271 8.46029 0.0668036 1.46537 0.0415036 1.40371C-0.120647 0.951111 0.219754 0.704478 0.587754 0.704478H3.90666C4.35171 0.704478 4.49661 1.01146 4.59781 1.28695C4.71511 1.60311 5.14981 2.86776 5.86281 4.28853C7.01741 6.60005 7.72696 7.54067 8.29391 7.54067C8.40043 7.54103 8.50515 7.50935 8.59751 7.44884C9.33811 6.98443 9.20011 3.96712 9.16561 3.34529C9.16561 3.22459 9.16446 1.99799 8.78496 1.40502C8.51356 0.979972 8.05126 0.814675 7.77181 0.754329C7.84656 0.631013 8.00526 0.442102 8.20881 0.330593C8.71596 0.0419799 9.63251 0 10.5422 0H11.047C12.0337 0.0157425 12.289 0.0878956 12.6478 0.191534C13.37 0.388315 13.3838 0.92225 13.3206 2.74051C13.3022 3.26001 13.2826 3.84511 13.2826 4.53385C13.2826 4.68078 13.2769 4.84476 13.2769 5.01137C13.255 5.94411 13.2263 6.99493 13.8036 7.42654C13.8784 7.47974 13.9649 7.50792 14.0531 7.50787C14.2532 7.50787 14.8524 7.50787 16.4773 4.32657C17.1903 2.92155 17.7423 1.26465 17.7803 1.14002C17.8125 1.07049 17.9091 0.875022 18.0264 0.796309C18.1098 0.745664 18.2033 0.720365 18.2978 0.722844H22.202C22.6275 0.722844 22.9162 0.79631 22.9725 0.979972C23.0668 1.27777 22.9541 2.1869 21.1716 4.93659C20.8715 5.39444 20.6081 5.79063 20.377 6.13696C18.7612 8.55606 18.7612 8.67807 20.4724 10.5147Z" fill="black"/>
</svg>
